<?xml version="1.0" encoding="UTF-8"?>
<svg xmlns="http://www.w3.org/2000/svg" xmlns:xlink="http://www.w3.org/1999/xlink" version="1.1" id="Capa_1" x="0px" y="0px" viewBox="0 0 512 512" style="enable-background:new 0 0 512 512;" xml:space="preserve" width="512" height="512">
<g>
	<g>
		<path style="fill:none;stroke:#000000;stroke-width:15;stroke-linecap:round;stroke-linejoin:round;stroke-miterlimit:10;" d="&#10;&#9;&#9;&#9;M116.818,234h-6.5c-16.569,0-30,13.431-30,30v2.606c0,28.972,23.159,52.535,51.975,53.185"/>
		<path style="fill:none;stroke:#000000;stroke-width:15;stroke-linecap:round;stroke-linejoin:round;stroke-miterlimit:10;" d="&#10;&#9;&#9;&#9;M372.984,234h6.334c16.569,0,30,13.431,30,30v2.606c0,2.528-0.176,5.016-0.518,7.45"/>
		<g>
			<path style="fill:none;stroke:#000000;stroke-width:15;stroke-linecap:round;stroke-linejoin:round;stroke-miterlimit:10;" d="&#10;&#9;&#9;&#9;&#9;M197.532,399.5v31.148c0,13.746-9.978,25.459-23.549,27.644l-68.386,11.011c-20.11,3.238-37.181,16.508-45.28,35.197l0,0"/>
			<path style="fill:none;stroke:#000000;stroke-width:15;stroke-linecap:round;stroke-linejoin:round;stroke-miterlimit:10;" d="&#10;&#9;&#9;&#9;&#9;M362.714,465.856l21.403,3.446c20.11,3.238,37.181,16.508,45.28,35.197v0"/>
		</g>
		<path style="fill:none;stroke:#000000;stroke-width:15;stroke-linecap:round;stroke-linejoin:round;stroke-miterlimit:10;" d="&#10;&#9;&#9;&#9;M225.818,309.5c10.886,4.05,21.772,4.321,32.659,0.813"/>
		<g>
			<g>
				<path style="fill:none;stroke:#000000;stroke-width:15;stroke-linecap:round;stroke-linejoin:round;stroke-miterlimit:10;" d="&#10;&#9;&#9;&#9;&#9;&#9;M182.44,130.976c19.592-11.151,41.442-17.476,62.418-17.476c55.5,0,117.405,43.981,126.95,105.067&#10;&#9;&#9;&#9;&#9;&#9;c1.162,7.438,1.268,15,0.596,22.498c-0.369,4.125-0.868,9.029-1.352,11.696l-0.992,5.471"/>
				<path style="fill:none;stroke:#000000;stroke-width:15;stroke-linecap:round;stroke-linejoin:round;stroke-miterlimit:10;" d="&#10;&#9;&#9;&#9;&#9;&#9;M259.782,415.114c-5.2,1.684-10.217,2.631-14.924,2.631c-23.093,0-53.647-22.792-76.737-43.608&#10;&#9;&#9;&#9;&#9;&#9;c-21.289-19.193-35.59-44.916-40.705-73.119l-8.752-48.256c-0.493-2.717-0.977-7.759-1.326-11.933&#10;&#9;&#9;&#9;&#9;&#9;c-0.62-7.423-0.494-14.905,0.683-22.26c4.158-25.997,17.806-48.975,36.409-66.761"/>
			</g>
		</g>
		<g>
			<path style="fill:none;stroke:#000000;stroke-width:15;stroke-linecap:round;stroke-linejoin:round;stroke-miterlimit:10;" d="&#10;&#9;&#9;&#9;&#9;M330.79,218.5c-18.188-5.666-39.565-9.999-59.972,0"/>
			<path style="fill:none;stroke:#000000;stroke-width:15;stroke-linecap:round;stroke-linejoin:round;stroke-miterlimit:10;" d="&#10;&#9;&#9;&#9;&#9;M158.925,218.5c18.188-5.666,39.565-9.999,59.972,0"/>
		</g>
		<path style="fill:none;stroke:#000000;stroke-width:15;stroke-linecap:round;stroke-linejoin:round;stroke-miterlimit:10;" d="&#10;&#9;&#9;&#9;M244.818,348.5c-9.46,7-23.06,6.452-33.151,1.453"/>
		<g>
			<path style="fill:none;stroke:#000000;stroke-width:15;stroke-linecap:round;stroke-linejoin:round;stroke-miterlimit:10;" d="&#10;&#9;&#9;&#9;&#9;M167.34,260.826c13.662,5.166,27.324,5.166,40.986,0"/>
			<path style="fill:none;stroke:#000000;stroke-width:15;stroke-linecap:round;stroke-linejoin:round;stroke-miterlimit:10;" d="&#10;&#9;&#9;&#9;&#9;M311.698,263.812c-10.103,1.83-20.206,0.835-30.309-2.986"/>
		</g>
	</g>
	<g>
		<g>
			<path style="fill:none;stroke:#000000;stroke-width:15;stroke-linecap:round;stroke-linejoin:round;stroke-miterlimit:10;" d="&#10;&#9;&#9;&#9;&#9;M434.698,424.628l54.266,54.266c5.858,5.858,5.858,15.355,0,21.213c-2.929,2.929-6.768,4.394-10.606,4.394&#10;&#9;&#9;&#9;&#9;s-7.678-1.464-10.606-4.394l-54.33-54.33"/>
			<path style="fill:none;stroke:#000000;stroke-width:15;stroke-linecap:round;stroke-linejoin:round;stroke-miterlimit:10;" d="&#10;&#9;&#9;&#9;&#9;M283.169,442.192c-23.106-19.261-37.811-48.259-37.811-80.692c0-57.99,47.01-105,105-105s105,47.01,105,105s-47.01,105-105,105&#10;&#9;&#9;&#9;&#9;c-13.188,0-25.808-2.431-37.437-6.87"/>
			<g>
				
					<circle style="fill:none;stroke:#000000;stroke-width:15;stroke-linecap:round;stroke-linejoin:round;stroke-miterlimit:10;" cx="350.357" cy="361.5" r="75"/>
				<path style="fill:none;stroke:#000000;stroke-width:15;stroke-linecap:round;stroke-linejoin:round;stroke-miterlimit:10;" d="&#10;&#9;&#9;&#9;&#9;&#9;M295.425,412.559l26.35-19.901c2.734-2.065,4.316-5.313,4.255-8.739l-0.396-22.419"/>
				<path style="fill:none;stroke:#000000;stroke-width:15;stroke-linecap:round;stroke-linejoin:round;stroke-miterlimit:10;" d="&#10;&#9;&#9;&#9;&#9;&#9;M368.834,359.688l14.059-17.036c2.467-2.989,6.355-4.413,10.169-3.724l30.338,5.482"/>
				
					<line style="fill:none;stroke:#000000;stroke-width:15;stroke-linecap:round;stroke-linejoin:round;stroke-miterlimit:10;" x1="373.576" y1="394.521" x2="396.176" y2="420.876"/>
				
					<line style="fill:none;stroke:#000000;stroke-width:15;stroke-linecap:round;stroke-linejoin:round;stroke-miterlimit:10;" x1="344.723" y1="286.71" x2="348.75" y2="337.393"/>
				
					<line style="fill:none;stroke:#000000;stroke-width:15;stroke-linecap:round;stroke-linejoin:round;stroke-miterlimit:10;" x1="321.965" y1="329.232" x2="346.336" y2="315"/>
			</g>
			
				<line style="fill:none;stroke:#000000;stroke-width:15;stroke-linecap:round;stroke-linejoin:round;stroke-miterlimit:10;" x1="436.953" y1="469.096" x2="457.953" y2="448.096"/>
		</g>
	</g>
	<path style="fill:none;stroke:#000000;stroke-width:15;stroke-linecap:round;stroke-linejoin:round;stroke-miterlimit:10;" d="&#10;&#9;&#9;M76.663,370.687c4.976,1.795,10.267,2.982,15.779,3.475c20.48,1.831,40.847-3.603,55.767-20.429"/>
	<path style="fill:none;stroke:#000000;stroke-width:15;stroke-linecap:round;stroke-linejoin:round;stroke-miterlimit:10;" d="&#10;&#9;&#9;M470.729,215.509c-1.693-16.977-9.537-32.14-21.27-43.235c-4.632-4.38-6.619-10.932-5.057-17.112&#10;&#9;&#9;c1.185-4.687,1.817-9.593,1.817-14.648c0-20.932-10.753-39.346-27.033-50.037c-3.892-2.556-6.559-6.545-7.586-11.086&#10;&#9;&#9;c-6.031-26.665-29.864-46.576-58.353-46.576c-0.451,0-0.901,0.005-1.35,0.015c-4.943,0.11-9.658-1.93-13.129-5.45&#10;&#9;&#9;C326.669,15.111,309.862,7.5,291.27,7.5c-13.532,0-26.116,4.034-36.63,10.959c-5.908,3.891-13.656,3.891-19.564,0&#10;&#9;&#9;C224.561,11.534,211.977,7.5,198.445,7.5c-18.592,0-35.399,7.611-47.498,19.879c-3.471,3.52-8.187,5.56-13.129,5.45&#10;&#9;&#9;c-0.449-0.01-0.899-0.015-1.35-0.015c-28.489,0-52.321,19.912-58.353,46.576c-1.027,4.541-3.694,8.53-7.586,11.086&#10;&#9;&#9;c-16.28,10.691-27.033,29.105-27.033,50.037c0,5.055,0.632,9.961,1.817,14.648c1.562,6.181-0.425,12.732-5.057,17.112&#10;&#9;&#9;c-13.308,12.584-21.613,30.403-21.613,50.165c0,18.852,7.561,35.932,19.812,48.389c5.167,5.254,6.465,13.107,3.527,19.865&#10;&#9;&#9;c-3.582,8.242-5.364,17.446-4.839,27.121c0.661,12.19,4.884,23.277,11.667,32.345"/>
	<path style="fill:none;stroke:#000000;stroke-width:15;stroke-linecap:round;stroke-linejoin:round;stroke-miterlimit:10;" d="&#10;&#9;&#9;M428.357,291.5c20.803-10.717,32.352-25.995,38.048-41.732"/>
	
		<line style="fill:none;stroke:#000000;stroke-width:15;stroke-linecap:round;stroke-linejoin:round;stroke-miterlimit:10;" x1="244.857" y1="112.75" x2="244.857" y2="21.479"/>
	<path style="fill:none;stroke:#000000;stroke-width:15;stroke-linecap:round;stroke-linejoin:round;stroke-miterlimit:10;" d="&#10;&#9;&#9;M86.673,244.5c-14.814-70.368,16.459-141.172,80.002-172.333c22.954-11.257,50.392-9.346,71.272,5.407&#10;&#9;&#9;c2.522,1.782,4.917,2.926,6.91,2.926l0,0c1.76,0,3.843-0.941,6.05-2.447c21.327-14.555,48.631-17.336,71.837-6.014&#10;&#9;&#9;c63.742,31.098,95.135,101.984,80.298,172.461"/>
</g>















</svg>
