<svg id="Layer_1" enable-background="new 0 0 512 512" viewBox="0 0 512 512" xmlns="http://www.w3.org/2000/svg"><path d="m306.44 284.43c-11 12.84-16.35 29.19-15.05 46.05s9.08 32.2 21.92 43.21c11.58 9.92 26.01 15.24 41.09 15.24 1.65 0 3.3-.06 4.96-.19 16.86-1.3 32.2-9.08 43.2-21.92s16.35-29.19 15.05-46.05-9.08-32.2-21.92-43.21c-12.84-11-29.2-16.34-46.05-15.05-16.85 1.3-32.2 9.08-43.2 21.92zm48.15-10.11c9.85 0 19.35 2.8 27.57 8.09l-6.73 8.25-22.24-4.21c-3.25-.62-6.39 1.52-7.01 4.78s1.52 6.39 4.78 7.01l15.84 3-4.3 5.27c-2.09 2.57-1.71 6.35.86 8.44 1.11.91 2.46 1.35 3.79 1.35 1.74 0 3.47-.75 4.65-2.21l19.63-24.08c8.28 8.56 13.29 19.64 14.21 31.66.59 7.7-.53 15.28-3.21 22.28l-12.51-11.09c-1.46-1.3-3.47-1.8-5.37-1.35l-19.71 4.7c-3.22.77-5.21 4.01-4.44 7.23s4.01 5.22 7.23 4.44l16.67-3.98 12.34 10.95c-.99 1.42-2.05 2.8-3.2 4.13-8.92 10.41-21.35 16.71-35.01 17.77-3.91.3-7.79.15-11.58-.42l2.72-20.56c.43-3.29-1.88-6.3-5.16-6.74-3.29-.43-6.3 1.88-6.74 5.16l-2.51 18.94c-5.05-2.06-9.8-4.93-14.06-8.58-8.56-7.33-14.33-17.04-16.71-27.86l16.28 1.55c.19.02.38.03.57.03 1.58 0 3.11-.63 4.24-1.76l16.43-16.43c2.34-2.34 2.34-6.14 0-8.49-2.34-2.34-6.14-2.34-8.49 0l-14.43 14.44-15.8-1.5c.23-11.86 4.52-23.18 12.34-32.31 8.92-10.41 21.35-16.71 35.01-17.77 1.37-.08 2.71-.13 4.05-.13zm-115.83-44.53c-6.62 4.17-13.42 6.25-20.21 6.25-6.8 0-13.58-2.09-20.17-6.26-2.8-1.77-3.63-5.48-1.86-8.28s5.48-3.63 8.28-1.86c9.38 5.94 18.14 5.93 27.57-.01 2.81-1.76 6.51-.92 8.27 1.88 1.76 2.81.92 6.52-1.88 8.28zm36.11-8.28c1.77-2.8 5.48-3.63 8.28-1.86 9.38 5.94 18.14 5.93 27.57-.01 2.8-1.76 6.51-.92 8.27 1.88s.92 6.51-1.88 8.27c-6.62 4.17-13.42 6.25-20.21 6.25-6.8 0-13.58-2.09-20.17-6.26-2.8-1.77-3.63-5.47-1.86-8.27zm211.87 269.04c-2.97-39.49-18.99-63.83-50.34-76.45l-20.3-29.64c1.06-1.11 2.09-2.24 3.1-3.41 14.81-17.28 22-39.29 20.25-61.97s-12.23-43.33-29.5-58.14c-6.85-5.87-14.46-10.52-22.55-13.92.33-2.09.54-4.18.61-6.25.39-11.39-2.77-18.79-6.47-23.52 7.2-30.54 4.37-62.19-6.92-90.28 31.93-8.92 34.27-28.24 32.6-39.45-2.4-16.12-16-34.95-36.37-50.36-20.24-15.31-42.1-23.52-58.47-21.97-10.77 1.02-28.1 7.17-29.41 35.74-8.46-.88-17.06-.81-25.76.24-21.86 2.64-43.69 11.54-63.13 25.73-45.85 33.49-70.64 88.97-62.47 139.01-4.15 4.62-8.04 12.32-7.6 24.86.89 25.64 21.81 51.95 56.04 70.58 6.24 8.26 12.52 15.51 18.81 21.72-1.02 56.61-36.39 62.72-77.25 69.77-42.62 7.36-90.92 15.7-96.34 87.7-.12 1.67.45 3.31 1.58 4.53 1.14 1.22 2.73 1.92 4.4 1.92h449.51c1.67 0 3.26-.7 4.4-1.92 1.13-1.21 1.7-2.86 1.58-4.52zm-79.6-97.92 11.92 17.4-9.18 6.29-11.92-17.4c3.18-1.9 6.26-3.98 9.18-6.29zm18.7 27.3 15.72 22.95c1.73 2.53 1.08 6-1.45 7.74-1.22.83-2.69 1.14-4.17.87-1.47-.28-2.74-1.1-3.57-2.31l-15.72-22.95zm1.64-99.93c1.5 19.49-4.68 38.4-17.4 53.24s-30.46 23.85-49.95 25.35c-1.91.15-3.79.22-5.67.22-37.82 0-69.96-29.24-72.92-67.57-1.5-19.49 4.68-38.4 17.4-53.24s30.46-23.85 49.95-25.35c1.92-.15 3.83-.22 5.74-.22 17.44 0 34.12 6.15 47.5 17.62 14.84 12.72 23.84 30.46 25.35 49.95zm-241.04-20.16c-16.5-22.84-15.48-54.88-14.49-85.88.19-5.99.37-11.71.43-17.33 19.77-11.65 35.8-25.74 47.77-41.98 23.45 19.26 59.67 47.11 96.77 47.11 7.58 0 15.2-1.16 22.75-3.79.09 4.13.22 8.36.36 12.72.32 10.16.65 20.63.4 30.93-19.7 3.27-37.46 13.23-50.6 28.57-6.97 8.13-12.22 17.32-15.68 27.12-13.85 6.02-31.31 4.56-43.12-3.8-2.71-1.91-6.45-1.27-8.36 1.43-1.91 2.71-1.27 6.45 1.43 8.36 9.1 6.43 20.45 9.73 31.89 9.73 4.89 0 9.79-.62 14.54-1.84-1.16 6.84-1.49 13.87-.94 20.97.38 4.92 1.19 9.69 2.36 14.32-28.13 9.29-56.15-6.01-85.51-46.64zm166.01-59.38c.14-7.2.02-14.41-.17-21.51 7.65-.89 13.89.36 17.84 3.66 4.19 3.5 6.17 9.47 5.89 17.74-.03.92-.11 1.84-.21 2.76-7.55-1.93-15.39-2.85-23.35-2.65zm-38.94-213.32c28.78-2.75 77.71 34.44 81.83 62.15 1.91 12.84-6.74 21.78-25.71 26.6-9.83-19.67-23.99-37.13-41.9-50.56-.23-.17-.47-.33-.73-.47-10.4-5.68-21.13-9.68-32.12-12.03.58-23.97 14.03-25.26 18.63-25.69zm-112.36 59.45c38.1-27.83 81.72-31.97 119.73-11.4 40.43 30.54 59.94 83.51 50.1 134.08-5.39-2.28-11.82-3.08-19.07-2.35-.19-6.25-.36-12.23-.35-17.97 0-2.09-1.08-4.03-2.86-5.12s-4-1.18-5.86-.24c-38.45 19.53-80.53-9.85-117.32-40.05 2.15-11.15 2.77-21.04 1.95-31.73-.25-3.3-3.14-5.77-6.44-5.53-3.3.25-5.78 3.13-5.53 6.44.79 10.35.14 19.49-2.16 30.55-.01.07-.02.14-.03.21-11.76 17.42-28.53 32.37-49.89 44.45-1.88 1.07-3.05 3.06-3.05 5.22 0 4.48-.1 9.05-.24 13.76-6.54-.66-12.42-.09-17.46 1.69-4.89-44.22 17.86-92.34 58.48-122.01zm-65.16 153.77c-.29-8.28 1.7-14.25 5.89-17.75 3.97-3.31 10.23-4.56 17.91-3.65-.69 23.24-.85 48.29 7.32 69.86-19.24-14.64-30.55-31.91-31.12-48.46zm-98.13 244.64c6.9-56.71 45.26-63.33 85.78-70.33 21.04-3.63 42.81-7.39 59.23-18.8 16.14-11.22 25.15-28.53 27.41-52.68 15.2 11.94 30.52 17.95 45.86 17.95 6.51 0 13.03-1.09 19.54-3.25 12.85 31.33 43.69 52.92 78.76 52.92 2.19 0 4.39-.08 6.6-.25 9.11-.7 17.87-2.83 26.08-6.22l35.35 51.61c2.64 3.86 6.64 6.46 11.26 7.33 1.09.21 2.19.31 3.28.31 3.51 0 6.92-1.05 9.87-3.07 7.62-5.22 9.82-15.41 5.27-23.28 10.34 9.14 19.02 23.54 21.98 47.76z"/></svg>