<svg id="Layer_1" enable-background="new 0 0 134 134" height="512" viewBox="0 0 134 134" width="512" xmlns="http://www.w3.org/2000/svg"><g><path d="m78.06 86.34c-.1-3.02-2.28-4.64-3.72-5.71-.42-.32-1-.74-1.13-.96.58-5.48 1.3-10.82 1.3-10.88.06-.43-.18-.84-.57-1.03s-.87-.09-1.17.23c-.21.22-.8.65-1.81-.13-1.27-.97-2.51-9.61-2.51-17.44 0-3.2 1.65-6.17 3.4-9.31 1.74-3.12 3.54-6.35 4.09-10.27.96-6.74 6.72-6.68 6.98-6.67.49.02.93-.34 1.02-.83.08-.49-.21-.97-.69-1.12-7.39-2.32-15.48-1.69-16.31-1.62-1.35-.11-9.1-.6-16.22 1.62-.48.15-.77.63-.69 1.12s.51.86 1.01.84c.25-.01 6.03-.07 6.98 6.67.55 3.92 2.35 7.15 4.09 10.28 1.75 3.14 3.4 6.11 3.4 9.3 0 7.83-1.24 16.47-2.51 17.44-1.02.78-1.6.35-1.79.14-.29-.34-.77-.45-1.17-.26-.41.18-.64.61-.58 1.05.01.07.97 7.21 1.56 13.46.05.52.48.91.99.91h.09c.55-.05.95-.54.9-1.09-.42-4.41-1.01-9.25-1.34-11.78.75.07 1.64-.14 2.55-.84 1.44-1.11 2.28-5.28 2.75-9.56.47 4.28 1.31 8.45 2.75 9.56.91.7 1.8.91 2.55.84-.26 2.05-.71 5.62-1.09 9.24-.12 1.17.88 1.92 1.93 2.71 1.33.99 2.84 2.12 2.91 4.18.08 2.38-1.45 3.32-3.45 4.31-1.11.55-2.16 1.06-2.11 2.19.18 4.09-.24 12.26-.39 15.02h-6.22c-.09-2.01-.3-6.91-.4-11.26-.01-.55-.46-.96-1.02-.98-.55.01-.99.47-.98 1.02.09 4.3.3 9.13.39 11.21h-.8c-.76-1.72-1.29-4.31-1.65-8.05-.05-.55-.54-.96-1.09-.9-.55.05-.95.54-.9 1.09.43 4.42 1.11 7.38 2.13 9.32.17.33.51.53.88.53h10.6.06.01 2.46c.37 0 .71-.21.88-.53 1.79-3.39 2.26-9.54 2.61-16.08.03-.55-.39-1.02-.95-1.05-.54-.03-1.02.39-1.05.94-.32 5.96-.73 11.56-2.13 14.72h-.78c.16-2.85.56-10.65.4-14.89.21-.15.65-.36.98-.53 1.76-.86 4.7-2.31 4.57-6.17zm-14.18-46.2c-1.65-2.97-3.36-6.03-3.86-9.59-.6-4.22-2.79-6.32-4.87-7.36 5.94-1.08 11.48-.62 11.76-.6.03 0 .06-.01.09-.01.02 0 .03.01.05.01.07-.01 5.73-.51 11.79.6-2.08 1.04-4.27 3.14-4.87 7.36-.5 3.55-2.21 6.62-3.86 9.58-1.26 2.26-2.45 4.44-3.12 6.74-.65-2.29-1.85-4.47-3.11-6.73z"/><path d="m130.61 25.23c.68-5.8 1.82-15.52-9.47-18.8-9.82-2.86-13.8 2.93-16.43 6.76-.3.44-.59.86-.87 1.24-1.02 1.39-1.74 1.31-2.91 1.16-1.17-.14-2.77-.34-4.44 1.33-.89.89-1.48 2.31-2.06 3.69-.66 1.58-1.41 3.38-2.33 3.49-.58.07-1.93-.37-4.72-4.09-8.06-10.73-19.91-10.29-20.34-10.27-.5-.02-12.36-.46-20.41 10.27-2.79 3.72-4.14 4.17-4.72 4.09-.91-.11-1.67-1.91-2.33-3.49-.58-1.38-1.17-2.8-2.06-3.69-1.67-1.67-3.27-1.48-4.44-1.33-1.18.14-1.89.23-2.91-1.17-.28-.38-.57-.8-.87-1.24-2.63-3.83-6.6-9.62-16.43-6.76-11.29 3.28-10.15 13-9.47 18.8.72 6.11-.37 14.18-.38 14.26-.06.43.16.84.54 1.03.14.07.29.1.45.1.26 0 .51-.1.71-.29l.49-.49c.38 1.15.86 2.22 1.46 3.18 1.59 2.57 4 4.43 6.63 5.11.89.23 1.79.32 2.69.32 2.36 0 4.68-.65 6.64-1.21l7.17-2.01c1.21-.34 3.36-.96 4.35-2.64 2.34.02 9.77-.13 13.53-2.29.89 2.55 3.14 8.15 6.89 12.12-.49 2.64-2.41 14.32.33 22.36 1.08 3.19 1.49 7.89 1.75 12.06.03.53.47.94 1 .94h.06c.55-.03.97-.51.94-1.06-.27-4.3-.7-9.17-1.86-12.58-2.86-8.4-.19-21.7-.16-21.84.07-.33-.03-.67-.27-.91-4.78-4.79-7.17-12.91-7.19-12.99-.1-.34-.37-.6-.71-.69s-.71.01-.96.26c-2.1 2.11-9.14 2.59-12.8 2.62 0-.77-.22-1.58-.66-2.42.69.08 1.36.13 2.02.13 6.08 0 10.64-3.3 10.87-3.47.37-.27.5-.76.33-1.19-.67-1.6-.32-4.43-.13-5.38.08-.39-.08-.79-.41-1.01-.32-.23-.75-.24-1.09-.04-2.85 1.72-5.18 2.28-6.94 1.66-2.33-.82-3.34-3.59-3.95-5.25-.13-.35-.24-.65-.34-.88-.66-1.49-2.42-1.24-4.12-.99-2.92.41-4.74.47-5.32-2.27-.81-3.79-2.82-5.4-4.36-6.08-2.43-1.07-5.44-.66-8.49 1.14-5.52 3.28-3.26 8.56-1.76 12.06l.24.56c.7 1.66 2.17 2.45 3.85 2.69l-.31.16c-.27.16-.46.45-.49.76-.03.32.09.63.33.84l.26.23-2.63.67c-.46.12-.78.54-.76 1.01l.11 2.37-2.38-1.24c-.39-.2-.86-.13-1.17.18l-2.1 2.1c.27-2.99.56-7.81.07-11.92-.85-7.3-.87-14.06 8.05-16.65 8.44-2.45 11.64 2.22 14.22 5.97.32.46.62.9.91 1.3 1.71 2.33 3.48 2.12 4.77 1.96 1.05-.13 1.8-.22 2.78.76.61.61 1.13 1.85 1.63 3.05.92 2.19 1.86 4.44 3.93 4.7 1.84.23 3.87-1.28 6.57-4.88 7.4-9.86 18.6-9.48 18.71-9.47h.12c.12 0 11.32-.38 18.71 9.47 2.7 3.6 4.73 5.11 6.57 4.88 2.07-.26 3.01-2.52 3.93-4.7.5-1.2 1.02-2.44 1.63-3.05.98-.98 1.74-.89 2.78-.76 1.29.16 3.05.37 4.76-1.96.29-.4.59-.83.91-1.3 2.58-3.75 5.78-8.43 14.22-5.97 8.93 2.59 8.9 9.35 8.04 16.64-.49 4.11-.2 8.93.07 11.92l-2.1-2.1c-.31-.31-.78-.38-1.17-.18l-2.38 1.24.11-2.36c.02-.48-.29-.9-.76-1.02l-2.63-.66.26-.23c.24-.21.36-.53.33-.84s-.21-.6-.49-.76l-.27-.16c1.68-.24 3.15-1.03 3.85-2.69l.24-.56c1.5-3.5 3.76-8.78-1.77-12.06-3.05-1.8-6.06-2.21-8.49-1.14-1.54.68-3.56 2.28-4.36 6.08-.58 2.74-2.4 2.69-5.33 2.27-1.7-.24-3.46-.49-4.12 1-.1.23-.21.53-.34.88-.61 1.66-1.62 4.43-3.95 5.25-1.76.62-4.1.06-6.94-1.66-.34-.21-.77-.19-1.09.04s-.48.63-.41 1.01c.19.96.54 3.78-.13 5.38-.19.44-.03.96.38 1.22.24.16 4.84 3.11 10.85 3.11.71 0 1.44-.05 2.18-.14-.56.97-.84 1.89-.84 2.76-3.66-.03-10.7-.51-12.8-2.62-.25-.25-.61-.35-.96-.26-.34.09-.61.35-.71.69-.02.08-2.42 8.2-7.2 12.99-.24.24-.34.58-.27.91.03.13 2.71 13.44-.15 21.84-.46 1.34-.82 2.94-1.12 4.91-.08.55.29 1.06.84 1.14.05.01.1.01.15.01.49 0 .91-.35.99-.85.28-1.85.62-3.34 1.03-4.57 2.74-8.04.81-19.72.32-22.36 3.76-3.97 6.01-9.57 6.9-12.12 3.77 2.17 11.2 2.31 13.54 2.29 1.02 1.69 3.15 2.3 4.34 2.64l7.17 2.01c1.97.55 4.28 1.21 6.64 1.21.89 0 1.8-.09 2.69-.32 2.62-.68 5.04-2.54 6.63-5.11.59-.96 1.07-2.03 1.46-3.18l.49.49c.3.3.77.38 1.15.19s.6-.61.54-1.03c0-.09-1.1-8.16-.37-14.26zm-118.22 1.14-.24-.57c-1.8-4.2-2.78-7.34.95-9.55 2.48-1.47 4.85-1.83 6.67-1.03 1.6.7 2.71 2.32 3.21 4.66 1.01 4.77 5.11 4.19 7.56 3.84.72-.1 1.8-.26 2-.18.09.2.18.46.29.77.68 1.86 1.95 5.32 5.17 6.45 1.93.68 4.25.38 6.88-.88-.08 1.11-.08 2.51.23 3.74-1.71 1.05-6.91 3.75-12.76 2.21-.03-.04-.07-.09-.11-.13-2.21-2.54-5.23-6.02-9.33-7.02-1.08-.26-2.16-.33-3.23-.34-.01-.06 0-.12-.02-.18-.16-.53-.71-.83-1.25-.67-.48.16-4.95 1.42-6.02-1.12zm-4.09 10.38 3.27 1.71c.32.17.7.15 1-.04s.48-.53.46-.89l-.15-3.28 3.67-.92c.36-.09.64-.37.73-.73s-.03-.74-.31-.99l-.65-.58 1.06-.63.29-.01c1.67-.07 3.25-.13 4.77.24 3.22.78 5.66 3.36 8.29 6.39.33.38.76.89 1.12 1.45.74 1.12.97 2.04.7 2.79 0 .01-.04.1-.04.11-.46 1.08-1.94 1.57-3.29 1.95l-7.17 2.01c-2.48.7-5.57 1.57-8.29.87-2.13-.55-4.1-2.09-5.42-4.22-.67-1.09-1.19-2.36-1.55-3.74zm80.59-3.18c.3-1.21.3-2.59.22-3.69 2.64 1.26 4.95 1.56 6.88.88 3.22-1.13 4.49-4.59 5.17-6.45.11-.3.21-.57.23-.69.26-.15 1.35.01 2.06.11 2.45.35 6.55.93 7.56-3.84.5-2.35 1.61-3.96 3.21-4.66 1.82-.8 4.19-.43 6.67 1.03 3.73 2.21 2.74 5.35.95 9.55l-.24.57c-1.06 2.53-5.54 1.27-6.04 1.12-.03-.01-.06 0-.09-.01-.09-.02-.18-.03-.27-.02-.03 0-.06.01-.09.01-.1.02-.19.04-.28.09-.02.01-.04.02-.07.04-.09.05-.16.11-.23.19-.02.02-.04.05-.06.07-.03.04-.07.07-.09.11-.03.05-.03.1-.05.15-.01.02-.02.03-.03.05v.05c-.01.04-.03.09-.04.13-1.06.01-2.13.08-3.2.34-3.98.97-6.94 4.27-9.12 6.78-5.84 1.53-11.23-.93-13.05-1.91zm36.76 8.41c-1.32 2.13-3.29 3.67-5.42 4.22-2.72.7-5.81-.17-8.29-.87l-7.17-2.01c-1.35-.38-2.83-.87-3.29-1.95-.01-.02-.03-.09-.04-.11-.27-.75-.04-1.67.71-2.8.36-.56.81-1.09 1.11-1.44 2.63-3.03 5.07-5.6 8.29-6.39 1.52-.37 3.1-.3 4.77-.24l.29.01 1.06.63-.65.58c-.28.25-.39.63-.31.99s.37.64.73.73l3.67.92-.15 3.28c-.02.36.16.7.46.89s.68.21 1 .04l3.27-1.71 1.49 1.49c-.35 1.38-.86 2.64-1.53 3.74z"/><path d="m118.71 63.57h-25.03c-1.96 0-3.55 1.59-3.55 3.55 0 1.93 1.55 3.5 3.48 3.54v45.11c0 6.94 5.64 12.58 12.58 12.58s12.58-5.64 12.58-12.58v-45.12c1.92-.04 3.48-1.61 3.48-3.54 0-1.95-1.59-3.54-3.54-3.54zm-1.93 28.7h-21.16v-21.61h21.16zm-10.58 34.07c-5.83 0-10.58-4.75-10.58-10.58v-21.49h21.16v21.49c0 5.83-4.75 10.58-10.58 10.58zm12.51-57.68h-.93-23.16-.93c-.85 0-1.55-.69-1.55-1.55s.69-1.55 1.55-1.55h25.02c.85 0 1.55.69 1.55 1.55s-.7 1.55-1.55 1.55z"/><path d="m109.28 105.09c1.99 0 3.61-1.62 3.61-3.61s-1.62-3.61-3.61-3.61-3.61 1.62-3.61 3.61 1.62 3.61 3.61 3.61zm0-5.23c.89 0 1.61.72 1.61 1.61s-.72 1.61-1.61 1.61-1.61-.72-1.61-1.61.72-1.61 1.61-1.61z"/><path d="m101.38 107.93c-1.69 0-3.06 1.37-3.06 3.06s1.37 3.06 3.06 3.06 3.06-1.37 3.06-3.06-1.38-3.06-3.06-3.06zm0 4.12c-.58 0-1.06-.47-1.06-1.06 0-.58.47-1.06 1.06-1.06s1.06.47 1.06 1.06c-.01.58-.48 1.06-1.06 1.06z"/><path d="m110.4 111.58c-2.05 0-3.71 1.67-3.71 3.71s1.67 3.71 3.71 3.71c2.05 0 3.71-1.67 3.71-3.71s-1.66-3.71-3.71-3.71zm0 5.42c-.94 0-1.71-.77-1.71-1.71s.77-1.71 1.71-1.71c.95 0 1.71.77 1.71 1.71s-.76 1.71-1.71 1.71z"/><path d="m74.05 86.81c.2-1.11-.11-2.24-.84-3.1-.56-.65-1.33-1.1-2.19-1.27-3.38-.65-6.19-.17-8.34 1.43-2.61 1.94-3.42 4.95-3.65 6.17l-23.93 13.31c-2.08 1.1-4.57 1.31-6.8.56l-1.99-.66c-1.97-.45-5.66-.98-8.22.54l-8.02 4.78c-3.08 1.84-5 5.21-5.02 8.8l-.02 4.5c0 1.12.57 2.12 1.53 2.69.5.3 1.04.44 1.58.44.52 0 1.04-.13 1.52-.4l62.53-35.17c.98-.55 1.66-1.51 1.86-2.62zm-1.97-.35c-.09.52-.41.97-.87 1.23l-62.53 35.17c-.5.28-.94.09-1.1-.01-.17-.1-.55-.38-.55-.96l.02-4.5c.01-2.89 1.56-5.61 4.04-7.09l8.02-4.78c.82-.49 1.99-.74 3.36-.74 1.01 0 2.13.13 3.3.4l1.9.63c2.75.92 5.8.66 8.39-.7l24.38-13.56c.28-.16.47-.45.51-.77 0-.03.4-3.42 2.95-5.31 1.67-1.24 3.94-1.6 6.75-1.06.41.08.78.29 1.04.6.34.4.49.93.39 1.45z"/><path d="m20.22 35.39h1.29c.55 0 1-.45 1-1s-.45-1-1-1h-1.29c-.55 0-1 .45-1 1s.44 1 1 1z"/><path d="m25.08 40.13h1.27c.55 0 1-.45 1-1s-.45-1-1-1h-1.27c-.55 0-1 .45-1 1s.45 1 1 1z"/><path d="m16.48 38.15h1.11c.55 0 1-.45 1-1s-.45-1-1-1h-1.11c-.55 0-1 .45-1 1s.45 1 1 1z"/><path d="m19.41 42.54h1.26c.55 0 1-.45 1-1s-.45-1-1-1h-1.26c-.55 0-1 .45-1 1s.45 1 1 1z"/><path d="m12.91 42.54h1.26c.55 0 1-.45 1-1s-.45-1-1-1h-1.26c-.55 0-1 .45-1 1s.45 1 1 1z"/></g></svg>