<?xml version="1.0"?>
<svg xmlns="http://www.w3.org/2000/svg" data-name="Layer 1" id="Layer_1" viewBox="0 0 128 128"><title/><path d="M114.35,99.71c-.49-2.81-1-5.71-1.31-8.56a80.81,80.81,0,0,0-5-20.69A88.51,88.51,0,0,0,99.2,53h3.33a2,2,0,1,0,0-4H96.27c-.19-.24-.38-.5-.57-.73-.77-.94-1.57-1.84-2.39-2.7a13.42,13.42,0,0,0,4.4-3.48,2,2,0,0,0-3.36-2.17,14.87,14.87,0,0,1-4.08,2.73A40.87,40.87,0,0,0,86,39.41a23.37,23.37,0,0,1,6-2.76,2,2,0,0,0,1.5-1.85L94,22.09A2,2,0,0,0,91.83,20a42.55,42.55,0,0,0-13.88,4,12,12,0,0,0-3.79-8.35A14.93,14.93,0,0,0,66,12.2c.7-2.76,3-6.75,4.66-9A2,2,0,0,0,67.38.84C66.86,1.59,62.83,7.38,62,12a22.75,22.75,0,0,0-2.45.21,24.34,24.34,0,0,1,1.91-7.44,2,2,0,0,0-3.67-1.58c-.29.66-2.6,6.2-2.2,10.27a23.7,23.7,0,0,0-2.38,1.15C52.79,8.07,48.93,1.32,48.74,1a2,2,0,0,0-3.46,2c0,.08,4.49,7.82,3.86,13.79a2,2,0,0,0,0,.6c-4.77,4.08-7.52,9.6-9.09,14.38a70.66,70.66,0,0,1,1.08-12.22A3.23,3.23,0,0,0,42.51,17c0-1.5-1-5-10.31-5H32c-5,0-8.53,2.08-8.53,5a3.71,3.71,0,0,0,1.21,2.66c.71,4.47,1.85,14.88-1.1,23.7a2,2,0,1,0,3.79,1.27c2.74-8.2,2.31-17.36,1.64-22.92A15.3,15.3,0,0,0,32,22a23.57,23.57,0,0,0,4.77-.6c-.85,5.94-1.48,15.33,1.13,23.33a2,2,0,0,0,2.39,1.32c.07,0,7.38-1.8,12.58,1.42a11,11,0,0,1,4.82,7.39c0,.11,2.7,11.2-9,19.8A42.57,42.57,0,0,0,41.5,81a26.25,26.25,0,0,0-4.6,8.34,5.75,5.75,0,0,1-2,3,2,2,0,0,0,2.15,3.38,9.37,9.37,0,0,0,3.56-4.93c.35-.94.71-1.81,1.09-2.64a10,10,0,0,0,.6,1.25,10.71,10.71,0,0,0,1.05,1.49c.3,1.81,1.78,9.13,6.51,12.72a2,2,0,0,0,2.42-3.19,12.8,12.8,0,0,1-3.79-5.76,27.05,27.05,0,0,0,6.11,1.86,2,2,0,1,0,.75-3.93c-4.83-.92-8.13-2.7-9.55-5.13a6.19,6.19,0,0,1-.67-4.5,42,42,0,0,1,5.91-5.07,32.17,32.17,0,0,0,3.29-2.76,10.26,10.26,0,0,0,1,2.55c1.69,2.95,4.79,5.1,9.21,6.46v0c0,.06,4.48,6.42,3.63,11.52A2,2,0,0,0,69.89,98l.33,0a2,2,0,0,0,2-1.67c.66-4-.89-8.19-2.31-11,1.16.15,2.32.25,3.45.35,5.12.43,9.17.77,11.71,5.14a35.77,35.77,0,0,1,2.87,7.73C89.75,104.84,91.85,112,99.54,114a2,2,0,1,0,1-3.88c-5.47-1.37-7.07-6.87-8.76-12.69A44.75,44.75,0,0,0,89,89.69a19.8,19.8,0,0,0,3.69.37,13.11,13.11,0,0,0,4-.58,2,2,0,1,0-1.22-3.81c-4.87,1.56-11.72-1.92-11.82-2a2,2,0,0,0-.87-.22c-2.88-1.31-6.09-1.58-9.08-1.83a47.62,47.62,0,0,1-5.05-.6c-4.89-1-8.25-2.78-9.72-5.29a6.28,6.28,0,0,1-.59-1.4,25,25,0,0,0,9,1.95,13.11,13.11,0,0,0,4-.58A2,2,0,1,0,70,71.91C65.71,73.3,59.82,70.7,58.5,70.07a22.1,22.1,0,0,0,3.12-16.13,15.92,15.92,0,0,0-3.53-7.26c.44-1.3,1.55-3.76,3.12-4.51a2,2,0,0,0,1-2.62l-1-2.2L64.45,34l1.67,1.08a2,2,0,0,0,2.45-.22c.1-.09,9.14-8.46,21.34-10.53l-.39,9c-4.46,1.67-17.83,8.17-20.32,26.48A2,2,0,0,0,70.92,62l.27,0a2,2,0,0,0,2-1.73A35.12,35.12,0,0,1,74,56l1,1.21c2.09,2.49,4.24,5.06,7.66,6.54A13.59,13.59,0,0,0,88.12,65a10.24,10.24,0,0,0,7.29-3.24,2,2,0,1,0-2.78-2.87c-2.49,2.41-4.75,2.73-8.32,1.18C81.77,59,80,56.86,78.13,54.63c-.82-1-1.68-2-2.62-2.95a27,27,0,0,1,7-9.71A39.08,39.08,0,0,1,92.6,50.8c4.52,5.53,8.23,12.23,11.67,21.1a76.89,76.89,0,0,1,4.79,19.68c.33,3,.84,5.94,1.34,8.81A99.48,99.48,0,0,1,112,112.3a16.83,16.83,0,0,1-.66,6.26c-2.5,7.17-13,6-21.29,3.68-6.6-1.8-19.35-3.25-20.43-3.37-15.44-2.56-34.49-18.13-34.72-18.31-23.18-18.25-12.6-40-12.12-40.93a2,2,0,0,0-3.57-1.82A23.4,23.4,0,0,0,18.29,60,2,2,0,0,0,18,60c-2.19,0-7.64-3.28-10.82-5.61a2,2,0,0,0-2.37,3.22c1.36,1,8,5.72,12.32,6.32-.23,1-.45,2-.62,3.14a2,2,0,0,0-.9,0l-10,2A2,2,0,0,0,6,73a2,2,0,0,0,.39,0L16.12,71a35.55,35.55,0,0,0,5.75,21.34c-.34,2.73-1.77,14.21-2.77,19.77a5.68,5.68,0,0,0,1,4.4,5.84,5.84,0,0,0,4,2.32L32.49,120a6.43,6.43,0,0,0,.84.06,6.35,6.35,0,0,0,6.26-5l.89-5.33c7.32,5,18.44,11.52,28.54,13.17h.1c.13,0,13.42,1.49,19.86,3.25A47.08,47.08,0,0,0,101.21,128c8.86,0,12.48-4.07,13.89-8.13a20.72,20.72,0,0,0,.88-7.77A102.5,102.5,0,0,0,114.35,99.71ZM27.71,17A8.1,8.1,0,0,1,32,16h.15a14.55,14.55,0,0,1,5.77.85A16.11,16.11,0,0,1,32,18,8.19,8.19,0,0,1,27.71,17ZM67,30.88l-1.78-1.15a2,2,0,0,0-2.52.29l-5.35,5.53A2,2,0,0,0,57,37.76l.86,1.91a12.44,12.44,0,0,0-3,4.32c-4.42-2.66-9.7-2.61-12.82-2.26.24-2.85,2.38-21.65,18.05-25.54,2.13-.35,8.11-.56,11.39,2.41,1.81,1.64,2.65,4.16,2.51,7.47A52.49,52.49,0,0,0,67,30.88Zm-31.38,83.4A2.36,2.36,0,0,1,33,116l-8.39-1.11a1.86,1.86,0,0,1-1.3-.72,1.72,1.72,0,0,1-.28-1.33c.74-4.12,1.69-11.19,2.29-15.88a50.44,50.44,0,0,0,7.06,6.72c.22.18,1.86,1.52,4.46,3.42Z"/><circle cx="23.15" cy="52.01" r="2"/><circle cx="38.01" cy="72.01" r="2"/><circle cx="102.02" cy="100.01" r="2"/><path d="M35.3,53.53a2,2,0,0,0-2.58-3.06A12.71,12.71,0,0,0,29.9,67.06,2,2,0,1,0,33.3,65C33.14,64.69,29.41,58.5,35.3,53.53Z"/><path d="M82.22,104.26a2,2,0,0,0-2.59-1.14c-4.77,1.85-8.68,2.08-11.31.69A6.9,6.9,0,0,1,65,99.58a2,2,0,0,0-3.91.84,11,11,0,0,0,5.31,6.87A11.12,11.12,0,0,0,68,108c1.22,1.43,6.59,7.36,12.81,8H81a2,2,0,0,0,.2-4c-2.53-.26-5-1.85-6.91-3.42a27.14,27.14,0,0,0,6.76-1.75A2,2,0,0,0,82.22,104.26Z"/><path d="M77.49,5.93l.93.26a2,2,0,1,0,1.13-3.84l-1-.28a2,2,0,1,0-1.06,3.86Z"/><path d="M117.37,44.15q.29.93.55,1.87A2,2,0,0,0,121.78,45q-.28-1-.59-2a2,2,0,0,0-3.82,1.2Z"/><path d="M114.54,36.89a2,2,0,0,0,3.62-1.71q-.45-.94-.92-1.87a2,2,0,0,0-3.56,1.83Q114.12,36,114.54,36.89Z"/><path d="M121.21,51.42a2,2,0,0,0-1.71,2.25q.13,1,.23,1.94a2,2,0,0,0,2,1.8h.21a2,2,0,0,0,1.79-2.19q-.11-1-.25-2.07A2,2,0,0,0,121.21,51.42Z"/><path d="M103.38,21a2,2,0,0,0,2.84-2.82q-.74-.74-1.5-1.46A2,2,0,1,0,102,19.63Q102.69,20.3,103.38,21Z"/><path d="M109.64,28.46a2,2,0,0,0,3.27-2.3q-.6-.85-1.23-1.69a2,2,0,1,0-3.19,2.41Q109.08,27.66,109.64,28.46Z"/><path d="M121.16,71.53a2,2,0,0,0-2.4,1.5q-.22.95-.48,1.88a2,2,0,0,0,1.4,2.46,2,2,0,0,0,.53.07A2,2,0,0,0,122.14,76q.28-1,.51-2A2,2,0,0,0,121.16,71.53Z"/><path d="M94.32,13.58q.82.54,1.61,1.11a2,2,0,0,0,2.32-3.26q-.85-.61-1.73-1.19a2,2,0,1,0-2.21,3.34Z"/><path d="M122.06,61.48A2,2,0,0,0,120,63.41q0,1-.1,1.95a2,2,0,0,0,1.86,2.13h.14a2,2,0,0,0,2-1.86q.07-1,.11-2.09A2,2,0,0,0,122.06,61.48Z"/><path d="M85.76,8.89q.9.4,1.78.82a2,2,0,1,0,1.74-3.6q-.94-.45-1.9-.88a2,2,0,1,0-1.62,3.66Z"/><path d="M118.31,81.25a2,2,0,0,0-2.63,1.05l-.39.9A2,2,0,1,0,119,84.81l.4-.94A2,2,0,0,0,118.31,81.25Z"/></svg>
