<svg id="Layer_3" height="512" viewBox="0 0 64 64" width="512" xmlns="http://www.w3.org/2000/svg" data-name="Layer 3"><path d="m18.707 56.707-1.414-1.414a7.777 7.777 0 0 0 -2.293 5.536v1.171h2v-1.171a5.791 5.791 0 0 1 1.707-4.122z"/><path d="m45 62v-1.171a7.777 7.777 0 0 0 -2.293-5.536l-1.414 1.414a5.791 5.791 0 0 1 1.707 4.122v1.171z"/><path d="m35.87 33.13h2v2h-2z" transform="matrix(.707 -.707 .707 .707 -13.335 36.068)"/><path d="m37.632 29.683h2v2h-2z" transform="matrix(.263 -.965 .965 .263 -1.135 59.879)"/><path d="m39.737 21.965h2v2h-2z" transform="matrix(.263 -.965 .965 .263 7.861 56.222)"/><path d="m33.041 35.958h2v2h-2z" transform="matrix(.707 -.707 .707 .707 -16.162 34.879)"/><path d="m38.684 25.824h2v2h-2z" transform="matrix(.263 -.965 .965 .263 3.363 58.05)"/><path d="m19.316 25.824h2v2h-2z" transform="matrix(.965 -.263 .263 .965 -6.343 6.292)"/><path d="m18.263 21.965h2v2h-2z" transform="matrix(.965 -.263 .263 .965 -5.364 5.879)"/><path d="m22.13 33.13h2v2h-2z" transform="matrix(.707 -.707 .707 .707 -17.359 26.352)"/><path d="m20.368 29.683h2v2h-2z" transform="matrix(.965 -.263 .263 .965 -7.321 6.705)"/><path d="m24.958 35.958h2v2h-2z" transform="matrix(.707 -.707 .707 .707 -18.533 29.196)"/><path d="m54 19v2.78a23.936 23.936 0 0 1 -5.759 15.569l1.518 1.3a25.943 25.943 0 0 0 6.241-16.869v-2.78c.345.462.738.987 1.2 1.6l1.6-1.2s-2.772-3.693-2.982-3.976a.964.964 0 0 0 -.241-.24c-.439-.312-.637-.451-1.34.308l-.069-.047a1 1 0 0 0 -.16.306c-.568.662-1.418 1.8-2.808 3.649l1.6 1.2z"/><path d="m4 19v2.78a25.943 25.943 0 0 0 6.241 16.871l1.518-1.3a23.936 23.936 0 0 1 -5.759-15.571v-2.78l1.2 1.6 1.6-1.2c-1.39-1.853-2.24-2.987-2.808-3.649a1 1 0 0 0 -.16-.306l-.069.047c-.7-.76-.9-.621-1.34-.308a.964.964 0 0 0 -.241.24c-.21.283-2.982 3.976-2.982 3.976l1.6 1.2c.462-.615.855-1.14 1.2-1.6z"/><path d="m59.707 53.293a1 1 0 0 0 -1.414 0l-1.793 1.793-1.586-1.586 2.793-2.793a1 1 0 0 0 0-1.414l-3-3a1 1 0 0 0 -1.414 0l-1.293 1.293-8.293-8.293a1 1 0 0 0 -1.414 0l-.793.793-1.586-1.586 1.618-1.618a6.994 6.994 0 0 0 1.841-3.252l.408-1.63h1.219a3.01 3.01 0 0 0 2.4-1.2l1.45-1.932a5.8 5.8 0 0 0 1.15-3.454 4.264 4.264 0 0 0 -1.844-3.574l.836-6.554a1.069 1.069 0 0 0 .008-.127 14.349 14.349 0 0 0 -6.4-11.959 13.044 13.044 0 0 0 -7.257-2.2h-10.686a13.044 13.044 0 0 0 -7.257 2.2 14.349 14.349 0 0 0 -6.4 11.959 1.069 1.069 0 0 0 .008.127l.836 6.554a4.264 4.264 0 0 0 -1.844 3.574 5.8 5.8 0 0 0 1.151 3.455l1.449 1.931a3.014 3.014 0 0 0 2.4 1.2h1.219l.408 1.63a6.994 6.994 0 0 0 1.841 3.252l4.482 4.482a9.132 9.132 0 0 0 1.018.865 7.408 7.408 0 0 1 -7.368 6.771 7.228 7.228 0 0 0 -5.145 2.131l-.161.162a7.777 7.777 0 0 0 -2.294 5.536v5.171h2v-5.171a5.792 5.792 0 0 1 1.708-4.123l.161-.162a5.24 5.24 0 0 1 3.731-1.544 9.342 9.342 0 0 0 5.325-1.662l.541.54a10.654 10.654 0 0 0 15.07 0l.541-.54a9.342 9.342 0 0 0 5.323 1.662 5.236 5.236 0 0 1 3.681 1.5l-.789.789a1 1 0 0 0 0 1.414l2.708 2.711v4.586h2v-4.586l2.5-2.5 1.586 1.586-1.793 1.793a1 1 0 0 0 0 1.414l3 3a1 1 0 0 0 1.414 0l5-5a1 1 0 0 0 0-1.414zm-9.121-4.293-1.586 1.586-7.586-7.586 1.586-1.586zm-3.337-21.332-1.449 1.932a1 1 0 0 1 -.8.4h-.719l1.571-6.28a5.266 5.266 0 0 0 .116-.683 2.4 2.4 0 0 1 2.032 2.377 3.782 3.782 0 0 1 -.751 2.254zm-34.249-12.568a12.353 12.353 0 0 1 5.512-10.239 11.046 11.046 0 0 1 6.145-1.861h10.686a11.046 11.046 0 0 1 6.145 1.861 12.353 12.353 0 0 1 5.512 10.239l-.761 5.967c-.079-.012-.159-.016-.239-.024v-2.043a1.063 1.063 0 0 0 -.025-.225l-.5-2.148a14.932 14.932 0 0 0 -14.612-11.627h-1.726a14.932 14.932 0 0 0 -14.616 11.627l-.5 2.148a1.063 1.063 0 0 0 -.021.225v2.04c-.08.008-.16.012-.239.024zm30.442 1.662-3.36-2.24a14.96 14.96 0 0 0 -8.321-2.522h-3.522a14.96 14.96 0 0 0 -8.321 2.519l-3.36 2.24a12.932 12.932 0 0 1 12.579-9.759h1.726a12.931 12.931 0 0 1 12.579 9.759zm-28.442 13.238a1 1 0 0 1 -.8-.4l-1.449-1.931a3.787 3.787 0 0 1 -.751-2.255 2.4 2.4 0 0 1 2.032-2.377 5.076 5.076 0 0 0 .117.683l1.57 6.28zm4.882 5.468a5 5 0 0 1 -1.316-2.323l-2.476-9.91a2.967 2.967 0 0 1 -.09-.727v-2.973l5.027-3.352a12.966 12.966 0 0 1 7.212-2.183h3.522a12.966 12.966 0 0 1 7.212 2.183l5.027 3.352v2.973a3.015 3.015 0 0 1 -.089.727l-2.477 9.911a5.006 5.006 0 0 1 -1.316 2.322l-1.618 1.618-.793-.793-1.414 1.414.793.793-1.45 1.45a6.954 6.954 0 0 1 -4.949 2.05h-1.374a6.954 6.954 0 0 1 -4.949-2.05zm10.118 15.532a8.6 8.6 0 0 1 -6.121-2.536l-.438-.438a9.373 9.373 0 0 0 2.4-4.721 8.983 8.983 0 0 0 3.476.7h1.374a8.983 8.983 0 0 0 3.476-.7 9.365 9.365 0 0 0 2.4 4.721l-.438.438a8.6 8.6 0 0 1 -6.129 2.536zm6.032-8.771a9.132 9.132 0 0 0 1.018-.865l1.45-1.45 1.586 1.586-.793.793a1 1 0 0 0 0 1.414l5.414 5.414a7.352 7.352 0 0 0 -1.307-.121 7.408 7.408 0 0 1 -7.368-6.771zm17.968 6.185 1.586 1.586-5.586 5.586-1.586-1.586zm3 12.172-1.586-1.586 3.586-3.586 1.586 1.586z"/></svg>