<svg id="Layer_1" viewBox="0 0 512 512" xmlns="http://www.w3.org/2000/svg" data-name="Layer 1"><path d="m173.274 245.234h-25.797v-25.797c0-4.418-3.582-8-8-8h-32.401c-4.418 0-8 3.582-8 8v25.797h-25.797c-4.418 0-8 3.582-8 8v32.4c0 4.418 3.582 8 8 8h25.797v25.798c0 4.418 3.582 8 8 8h32.401c4.418 0 8-3.582 8-8v-25.798h25.797c4.418 0 8-3.582 8-8v-32.4c0-4.418-3.582-8-8-8zm-8 32.4h-25.797c-4.418 0-8 3.582-8 8v25.798h-16.401v-25.798c0-4.418-3.582-8-8-8h-25.797v-16.4h25.797c4.418 0 8-3.582 8-8v-25.797h16.401v25.797c0 4.418 3.582 8 8 8h25.797zm334.739 70.971-107.429-62.118c-11.164-6.456-26.319-8.023-38.68-4.02l-115.401 30.84c.012-.531.041-1.062.041-1.593v-161.035c0-27.703-16.542-51.6-40.259-62.379v-51.333c0-15.459-12.577-28.036-28.036-28.036h-93.945c-15.459 0-28.036 12.577-28.036 28.036v51.333c-23.717 10.779-40.259 34.675-40.259 62.379v161.035c0 9.052 1.75 17.798 5.188 26.065-11.356 21.879-3.57 49.128 17.981 61.595l165.776 95.894c8.929 5.163 18.822 7.801 28.828 7.801 4.964 0 9.957-.649 14.872-1.963l142.379-38.05c10.017-2.215 13.103-2.308 20.034 1.699l22.405 12.943c1.838 1.062 4.022 1.35 6.071.801 2.05-.549 3.798-1.89 4.859-3.728l66.535-115.241c2.208-3.824.899-8.715-2.924-10.926zm-288.875-27.984c-22.236 5.942-35.492 28.868-29.55 51.105.915 3.423 2.219 6.62 3.854 9.558l-107.751-62.341c-10.704-6.191-23.216-7.833-35.236-4.621-6.394 1.709-12.215 4.689-17.204 8.706-.817-3.684-1.24-7.462-1.24-11.314v-137.056h198.533v137.056c0 1.99-.125 3.978-.35 5.952zm-146.87-259.063h55.286c4.418 0 8-3.582 8-8s-3.582-8-8-8h-55.286v-8.591c0-6.637 5.399-12.036 12.036-12.036h93.946c6.637 0 12.036 5.399 12.036 12.036v46.334c-3.974-.72-8.059-1.116-12.237-1.116h-93.544c-4.178 0-8.263.396-12.237 1.116zm-5.748 39.802c.175-.051.345-.112.514-.174 5.469-1.936 11.347-3.001 17.471-3.001h93.543c6.124 0 12.002 1.064 17.471 3.001.17.062.34.123.514.174 20.115 7.358 34.51 26.689 34.51 49.32v7.979h-198.534v-7.979c0-22.631 14.396-41.962 34.51-49.32zm368.027 358.482-15.473-8.939c-12.188-7.049-20.097-5.998-31.671-3.431-.112.025-.223.053-.333.082l-142.546 38.095c-10.692 2.854-21.899 1.354-31.559-4.231l-165.776-95.893c-14.536-8.408-19.524-27.075-11.12-41.611 4.051-7.006 10.627-12.025 18.516-14.135 2.644-.706 5.322-1.056 7.98-1.056 5.271 0 10.457 1.376 15.112 4.069l110.439 63.896c16.249 9.4 22.798 11.649 34.877 8.461l17.064-4.506c.021-.005.042-.011.062-.017.014-.004.026-.009.04-.013l107.456-28.375c4.272-1.128 6.82-5.505 5.692-9.776-1.128-4.272-5.506-6.825-9.777-5.692l-107.599 28.413c-13.74 3.573-27.292-4.134-30.888-17.588-3.665-13.714 4.51-27.853 18.224-31.518l16.284-4.352s.008-.002.011-.003l126.683-33.855c.15-.04.298-.084.445-.133 8.011-2.646 18.654-1.578 25.883 2.604l100.508 58.116-58.536 101.388zm-79.057-303.418s29.433 29.433 29.433 29.433c7.927 7.927 18.337 11.89 28.75 11.89s20.825-3.964 28.75-11.89c7.654-7.654 11.87-17.864 11.87-28.75s-4.215-21.096-11.87-28.75l-29.433-29.433s-29.432-29.433-29.432-29.433c-7.654-7.654-17.864-11.87-28.75-11.87s-21.096 4.215-28.75 11.87c-7.653 7.654-11.87 17.865-11.87 28.75s4.215 21.096 11.87 28.75l29.432 29.432zm82.803.683c0 6.612-2.551 12.805-7.183 17.437-9.614 9.614-25.259 9.614-34.873 0l-23.776-23.776 34.873-34.873 23.776 23.776c4.632 4.632 7.183 10.825 7.183 17.437zm-100.921-76.302c4.632-4.632 10.824-7.183 17.437-7.183s12.804 2.551 17.437 7.183l23.776 23.776-34.873 34.873-23.776-23.776c-4.632-4.632-7.183-10.825-7.183-17.437s2.551-12.805 7.183-17.437zm-19.48 199.422c30.034 0 54.469-24.435 54.469-54.469s-24.435-54.468-54.469-54.468c-30.034 0-54.468 24.435-54.468 54.468s24.434 54.468 54.468 54.469zm38.47-54.469c0 18.469-13.084 33.934-30.469 37.626v-75.252c17.385 3.692 30.469 19.157 30.469 37.626zm-46.469-37.626v75.252c-17.384-3.693-30.468-19.157-30.468-37.626s13.084-33.933 30.468-37.626z"/></svg>