<svg id="Layer_1" enable-background="new 0 0 512 512" viewBox="0 0 512 512" xmlns="http://www.w3.org/2000/svg"><path d="m505.59 419.785-37.665-5.819-21.391-21.391c11.62-13.349 18.68-30.766 18.68-49.812 0-13.608-3.523-26.615-10.269-38.151 12.182-3.795 23.18-10.929 31.678-20.684 10.988-12.613 17.039-28.783 17.039-45.534 0-29.647-18.857-55.666-46.09-65.351 7.168-11.808 11.037-25.489 11.037-39.442 0-18.268-6.484-35.049-17.267-48.169l16.549-16.549 37.699-5.825c3.807-.588 6.415-4.15 5.827-7.957-.588-3.806-4.151-6.417-7.957-5.827l-30.51 4.714 4.715-30.538c.587-3.806-2.022-7.369-5.828-7.956-3.81-.589-7.369 2.022-7.957 5.829l-5.814 37.66-16.533 16.534c-13.226-11.152-30.288-17.892-48.902-17.892-12.862 0-25.277 3.181-36.394 9.267-4.711-12.836-12.885-24.323-23.609-32.998-13.448-10.878-30.399-16.868-47.732-16.868-32.107 0-60.327 19.971-71.252 49.477-8.77-3.417-18.191-5.2-27.657-5.2-19.614 0-37.515 7.472-51.009 19.717l-22.006-22.006-5.847-37.696c-.591-3.807-4.158-6.412-7.96-5.823-3.806.59-6.413 4.154-5.823 7.96l4.735 30.533-30.532-4.714c-3.809-.586-7.369 2.022-7.957 5.828-.588 3.807 2.022 7.369 5.828 7.957l37.695 5.82 22.433 22.433c-9.738 12.773-15.536 28.703-15.536 45.967 0 8.992 1.527 17.7 4.548 25.979-28.669 11.318-48.089 39.36-48.089 70.723 0 10.736 2.179 21.047 6.466 30.706-6.661 15.142-10.166 31.642-10.166 48.681 0 21.443 5.55 42.031 15.961 60.135l-68.952 68.952c-12.368 12.368-12.368 32.491 0 44.86 6.184 6.183 14.306 9.275 22.43 9.275 8.123 0 16.247-3.093 22.431-9.277l68.978-69.005c18.549 10.61 39.326 15.923 60.105 15.923 11.64 0 23.279-1.666 34.525-4.995 13.852 22.161 38.025 35.705 64.415 35.705 18.147 0 35.716-6.506 49.471-18.319 11.075-9.511 19.145-21.972 23.31-35.781 10.435 5.189 21.951 7.899 33.795 7.899 17.835 0 34.241-6.193 47.219-16.52l21.606 21.606 5.82 37.695c.532 3.445 3.501 5.911 6.884 5.911.354 0 .712-.027 1.073-.083 3.806-.588 6.416-4.149 5.828-7.956l-4.715-30.537 30.51 4.714c3.805.589 7.369-2.021 7.957-5.827.587-3.808-2.021-7.37-5.828-7.958zm-460.817 57.666c-6.928 6.931-18.204 6.931-25.135.001-6.93-6.93-6.93-18.205 0-25.135l66.907-66.907c3.519 4.724 7.404 9.225 11.645 13.466 4.27 4.267 8.785 8.143 13.496 11.637zm63.278-88.439c-20.207-20.207-31.335-47.071-31.335-75.645 0-15.955 3.473-31.376 10.056-45.403.106-.199.202-.402.289-.61 5.18-10.858 12.23-20.87 20.989-29.629 20.868-20.855 48.267-31.28 75.67-31.28 27.396 0 54.798 10.428 75.648 31.278 41.71 41.71 41.71 109.577 0 151.289-41.705 41.704-109.587 41.703-151.317 0zm281.185 15.781c-12.398 0-24.348-3.63-34.557-10.497-.001-.001-.002-.001-.004-.002-17.2-11.555-27.469-30.818-27.469-51.53 0-3.852-3.122-6.974-6.974-6.974-3.851 0-6.974 3.122-6.974 6.974 0 23.789 11.06 46.016 29.808 60.359-6.506 27.978-31.259 47.872-60.406 47.872-20.525 0-39.408-10.041-50.931-26.641 13.628-5.874 26.388-14.365 37.502-25.479 47.148-47.148 47.148-123.866 0-171.014-47.142-47.141-123.87-47.141-171.042 0-6.17 6.17-11.583 12.892-16.21 20.05-1.035-4.52-1.563-9.172-1.563-13.93 0-27.782 18.656-52.371 45.366-59.795 1.996-.555 3.641-1.968 4.492-3.856.851-1.889.817-4.058-.091-5.919-4.132-8.474-6.226-17.602-6.226-27.131 0-34.203 27.827-62.03 62.03-62.03 10.146 0 19.813 2.369 28.735 7.041h.001c20.537 10.772 33.295 31.842 33.295 54.988 0 3.851 3.122 6.974 6.974 6.974 3.851 0 6.974-3.122 6.974-6.974 0-26.418-13.567-50.618-35.762-64.466 8.516-24.879 31.952-41.841 58.693-41.841 27.71 0 51.521 17.908 59.356 44.051-17.362 14.373-27.598 35.923-27.598 58.578 0 3.851 3.122 6.974 6.974 6.974 3.851 0 6.974-3.122 6.974-6.974 0-19.818 9.595-38.606 25.667-50.258 0 0 .001-.001.001-.001 10.64-7.7 23.214-11.771 36.363-11.771 34.203 0 62.03 27.827 62.03 62.03 0 14.249-4.938 28.146-13.904 39.132-1.552 1.902-1.99 4.48-1.154 6.788.837 2.308 2.826 4.005 5.236 4.47 26.002 5.011 44.875 27.891 44.875 54.404 0 26.018-18.474 48.629-43.547 54.109-11.065-12.504-26.087-21.091-42.371-24.286-1.819-16.73-13.724-30.971-30.206-35.475-3.716-1.015-7.55 1.173-8.565 4.889s1.174 7.551 4.889 8.566c11.82 3.23 20.087 14.022 20.177 26.287-.077.306-.141.618-.177.941-.071.645-.044 1.277.056 1.888-1.327 13.926-13.075 24.856-27.329 24.856-3.852 0-6.974 3.122-6.974 6.974s3.122 6.974 6.974 6.974c19.53 0 35.934-13.605 40.272-31.839 13.724 3.122 26.238 10.952 35.052 22.137 8.701 11.043 13.301 24.304 13.301 38.348-.003 34.202-27.83 62.029-62.033 62.029zm-171.261-90.152 22.227-27.346c.885-1.09 1.422-2.42 1.538-3.82.092-1.107.137-2.315.137-3.69 0-16.52-7.065-32.315-19.384-43.335-.001-.001-.002-.001-.003-.002-10.691-9.555-24.459-14.817-38.768-14.817-14.308 0-28.076 5.262-38.767 14.817-.001.001-.002.001-.003.002-12.319 11.021-19.384 26.816-19.384 43.335 0 1.184.032 2.362.096 3.501.082 1.468.626 2.871 1.553 4.012l22.249 27.341-38.233 46.976c-1.168 1.436-1.718 3.276-1.528 5.116.189 1.84 1.102 3.53 2.538 4.698l30.414 24.728c1.249 1.015 2.804 1.562 4.399 1.562.238 0 .477-.012.715-.037 1.84-.189 3.529-1.102 4.696-2.537l26.561-32.671 4.686-5.749 31.266 38.422c1.167 1.435 2.857 2.347 4.697 2.536.238.024.476.036.713.036 1.596 0 3.153-.548 4.402-1.564l30.385-24.728c2.986-2.431 3.438-6.823 1.008-9.81zm9.954-34.855c0 .171-.001.337-.003.498l-18.942 23.305-16.274-20.007 25.541-31.387c6.215 7.779 9.678 17.507 9.678 27.591zm-44.206-44.207c8.645 0 17.028 2.537 24.188 7.225l-9.894 12.158c-4.303-2.489-9.193-3.822-14.294-3.822s-9.991 1.333-14.293 3.822l-9.894-12.158c7.16-4.688 15.542-7.225 24.187-7.225zm5.255 30.491-5.257 6.459-5.253-6.459c1.658-.636 3.428-.983 5.255-.983s3.597.347 5.255.983zm-42.933 114.865-19.589-15.926 32.002-39.32 16.269 19.993zm75.352 0-81.877-100.618c-.002-.176-.003-.354-.003-.531 0-10.083 3.464-19.811 9.678-27.591l91.77 112.817z"/></svg>