<svg enable-background="new 0 0 512 512" viewBox="0 0 512 512" xmlns="http://www.w3.org/2000/svg"><g id="_x33_3_Orthopedics"><g><path d="m393.912 23.618c-.666 120.431-97.193 161.69-130.946 191.113-22.084 19.251-24.546 52.75-5.442 74.961 49.613 57.685 87.976 68.559 94.208 207.285h-137.477c-50.942-51.894-95.23-92.577-131.408-136.964-35.161-43.139-46.121-101.154-29.028-154.117 21.341-66.127 55.906-135.686 103.414-190.87z" fill="#fff"/><path d="m299.259 78.31-77.044 106.213c14.342 10.936 17.384 31.377 6.744 46.045-10.813 14.907-31.65 18.224-46.557 7.411-9.485-6.88-14.283-17.823-13.708-28.71-10.171 3.928-22.063 2.764-31.548-4.116-14.907-10.813-18.224-31.65-7.411-46.557 10.64-14.668 31.016-18.123 45.864-7.886l77.044-106.213z" fill="#c9def7"/><path d="m236.299 467.505-75.739-107.148c-14.972 10.055-35.304 6.351-45.764-8.446-10.63-15.039-7.059-35.833 7.98-46.463 9.568-6.763 21.473-7.782 31.595-3.73-.443-10.894 4.489-21.777 14.058-28.541 15.038-10.63 35.833-7.059 46.463 7.98 10.46 14.798 7.167 35.2-7.307 45.96l75.738 107.148" fill="#c9def7"/><path d="m466.169 201.955c0 53.238-43.148 96.347-96.347 96.347-53.238 0-96.386-43.109-96.386-96.347s43.148-96.347 96.386-96.347c53.199 0 96.347 43.109 96.347 96.347z" fill="#c9def7"/><path d="m320.898 193.345v17.22c0 5.41 4.386 9.796 9.796 9.796h20.702v20.702c0 5.41 4.386 9.796 9.796 9.796h17.22c5.41 0 9.796-4.386 9.796-9.796v-20.702h20.702c5.41 0 9.796-4.386 9.796-9.796v-17.22c0-5.41-4.386-9.796-9.796-9.796h-20.702v-20.702c0-5.41-4.386-9.796-9.796-9.796h-17.22c-5.41 0-9.796 4.386-9.796 9.796v20.702h-20.702c-5.41 0-9.796 4.386-9.796 9.796z" fill="#fff"/><g fill="#0c76f0"><path d="m394.084 18.804-236.678-8.594c-1.445-.071-2.869.565-3.826 1.671-43.546 50.581-80.603 118.958-104.35 192.535-17.659 54.718-6.488 114.026 29.882 158.644 26.161 32.094 55.916 61.651 90.373 95.877 13.287 13.192 27.023 26.841 41.331 41.413.908.927 2.146 1.445 3.44 1.445h137.474c2.777 0 4.941-2.327 4.815-5.036-5.196-115.697-32.419-143.894-70.095-182.916-8.1-8.392-16.478-17.066-25.274-27.298-17.306-20.121-15.085-50.708 4.956-68.184 1.08-.942 2.267-1.909 3.497-2.888 6.645 49.397 48.984 87.648 100.193 87.648 55.782 0 101.167-45.385 101.167-101.167 0-51.447-38.634-93.959-88.395-100.27 9.736-21.668 15.966-47.27 16.135-78.038.015-2.606-2.042-4.748-4.645-4.842zm67.266 183.151c0 50.468-41.06 91.528-91.528 91.528-50.492 0-91.566-41.06-91.566-91.528s41.074-91.528 91.566-91.528c50.468 0 91.528 41.06 91.528 91.528zm-89.187-101.049c-57.226-1.328-104.608 45.026-103.442 103.1-3.268 2.435-6.29 4.793-8.924 7.089-24.022 20.944-26.677 57.613-5.926 81.739 8.975 10.439 17.447 19.217 25.646 27.703 35.657 36.937 61.571 63.774 67.153 171.62h-130.395c-13.837-14.077-27.129-27.279-39.999-40.062-34.261-34.028-63.851-63.421-89.695-95.124-34.294-42.077-44.828-98-28.178-149.593 23.088-71.535 58.9-138.001 100.977-187.453l229.635 8.34c-.771 28.597-7.198 52.428-16.852 72.641z"/><path d="m125.834 155.77c-12.352 17.028-8.547 40.933 8.484 53.288 8.707 6.311 19.459 8.613 29.781 6.547 1.247 10.449 6.766 19.961 15.473 26.277 17.047 12.359 40.876 8.626 53.29-8.481 11.122-15.329 9.037-36.636-4.156-49.617l74.458-102.645c1.559-2.157 1.083-5.162-1.073-6.73l-46.618-33.812c-2.156-1.572-5.173-1.078-6.73 1.073l-74.455 102.641c-16.428-8.502-37.33-3.875-48.454 11.459zm53.667-2.231 74.215-102.311 38.815 28.155-74.218 102.311c-1.534 2.118-1.101 5.074.979 6.66 12.19 9.3 14.774 26.969 5.766 39.389-9.298 12.808-27.114 15.556-39.825 6.335-7.855-5.695-12.239-14.877-11.726-24.554.087-1.633-.659-3.196-1.984-4.156-1.273-.927-2.984-1.202-4.565-.593-9.041 3.492-19.127 2.17-26.98-3.521-12.729-9.234-15.572-27.1-6.34-39.827 9.008-12.421 26.601-15.452 39.224-6.749 2.16 1.482 5.104.979 6.639-1.139z"/><path d="m218.826 278.375c-19.824-28.055-64.424-17.502-68.972 16.953-33.73-7.168-58.905 31.197-38.991 59.364 10.929 15.461 31.762 20.361 48.308 12.049l73.192 103.544c1.524 2.16 4.526 2.699 6.716 1.153l47.028-33.238c2.173-1.537 2.689-4.545 1.153-6.716l-73.192-103.549c13.353-12.816 15.692-34.094 4.758-49.56zm57.783 154.738-39.159 27.675-72.954-103.21c-1.511-2.141-4.462-2.676-6.622-1.219-12.719 8.538-30.282 5.304-39.142-7.229-16.32-23.092 7.568-53.457 33.85-42.933 1.516.607 3.238.4 4.572-.541s2.099-2.499 2.033-4.132c-1.156-28.488 35.613-40.452 51.77-17.584 8.858 12.529 6.057 30.164-6.246 39.309-2.099 1.563-2.57 4.514-1.059 6.65z"/><path d="m346.576 162.848v15.88h-15.88c-8.062 0-14.619 6.556-14.619 14.619v17.217c0 8.062 6.556 14.619 14.619 14.619h15.88v15.88c0 8.062 6.556 14.619 14.614 14.619h17.221c8.058 0 14.614-6.556 14.614-14.619v-15.88h15.885c8.058 0 14.614-6.556 14.614-14.619v-17.217c0-8.062-6.556-14.619-14.614-14.619h-15.885v-15.88c0-8.062-6.556-14.619-14.614-14.619h-17.221c-8.057.001-14.614 6.557-14.614 14.619zm36.81 0v20.699c0 2.664 2.156 4.82 4.82 4.82h20.704c2.744 0 4.975 2.236 4.975 4.98v17.217c0 2.744-2.231 4.98-4.975 4.98h-20.704c-2.664 0-4.82 2.156-4.82 4.82v20.699c0 2.744-2.231 4.98-4.975 4.98h-17.221c-2.744 0-4.975-2.236-4.975-4.98v-20.699c0-2.664-2.156-4.82-4.82-4.82h-20.699c-2.744 0-4.98-2.236-4.98-4.98v-17.217c0-2.744 2.236-4.98 4.98-4.98h20.699c2.664 0 4.82-2.156 4.82-4.82v-20.699c0-2.744 2.231-4.98 4.975-4.98h17.221c2.744.001 4.975 2.236 4.975 4.98z"/><path d="m110.886 295.71 15.176-10.166c2.21-1.483 2.803-4.476 1.323-6.688-1.485-2.217-4.481-2.8-6.688-1.323l-15.176 10.166c-2.21 1.483-2.803 4.476-1.323 6.688 1.473 2.199 4.466 2.808 6.688 1.323z"/><path d="m94.587 246.098h-24.735c-2.662 0-4.82 2.156-4.82 4.82s2.158 4.82 4.82 4.82h24.735c2.662 0 4.82-2.156 4.82-4.82s-2.158-4.82-4.82-4.82z"/><path d="m120.697 224.306c2.223 1.486 5.216.876 6.688-1.323 1.48-2.212.887-5.205-1.323-6.688l-15.176-10.166c-2.207-1.473-5.203-.89-6.688 1.323-1.48 2.212-.887 5.205 1.323 6.688z"/></g></g></g><g id="Layer_1"/></svg>