<svg clip-rule="evenodd" fill-rule="evenodd" stroke-linejoin="round" stroke-miterlimit="2" viewBox="0 0 510 510" xmlns="http://www.w3.org/2000/svg"><path d="m342.375 486.075c-27.169 10.29-56.619 15.925-87.375 15.925-136.323 0-247-110.677-247-247s110.677-247 247-247 247 110.677 247 247c0 44.079-11.573 85.476-31.84 121.318 2.801 8.772 4.312 18.116 4.312 27.811 0 50.478-40.982 91.46-91.46 91.46-14.593 0-28.392-3.425-40.637-9.514zm120.697-126.174c15.945-31.534 24.928-67.177 24.928-104.901 0-128.596-104.404-233-233-233s-233 104.404-233 233 104.404 233 233 233c25.2 0 49.471-4.008 72.209-11.423-9.159-7.067-16.942-15.831-22.878-25.819h-116.425c-3.866 0-7-3.134-7-7v-52.102c-18.865-1.462-33.326-8.851-43.816-19.672-9.51-9.81-15.757-22.53-18.877-36.499-1.584-7.097-2.363-14.515-2.363-22.017v-11.839h-26.509c-13.787 0-22.225-14.853-15.713-26.821l.001-.002s42.23-77.554 42.23-77.553c.809-75.708 52.712-133.428 131.823-137.666 51.111-2.738 87.8 11.027 112.223 34.219 24.55 23.312 36.852 56.345 38.521 92.774 2.891 62.755-15.076 99.869-33.997 127.98 6.001-1.24 12.216-1.892 18.583-1.892 34.441 0 64.461 19.078 80.06 47.233zm-165.519 76.857c-3.878-10.136-6.002-21.137-6.002-32.629 0-35.551 20.328-66.392 49.984-81.524 20.901-28.413 46.176-64.412 42.906-135.382v-.001c-1.496-32.64-12.18-62.377-34.176-83.264-22.123-21.008-55.538-32.871-101.834-30.391-71.733 3.843-118.581 56.581-118.581 125.485 0 1.169-.293 2.32-.853 3.347l-24.288 44.604c20.301.004 62.793.012 94.949.018 45.658.01 82.406 31.171 82.406 76.828v112.909zm-54.122 0h24.633v-112.909c0-37.641-30.768-62.819-68.409-62.828-37.056-.008-87.839-.017-102.569-.019l-11.161 20.497c-1.47 2.702.303 6.13 3.416 6.13h107.761c12.287 0 24.071 4.881 32.759 13.569 8.689 8.689 13.57 20.473 13.57 32.76 0 6.592-7 7.001-7 7.002h-102.12c2.505 7.101 6.099 13.625 10.882 19.152h72.003c14.489 0 26.235 11.745 26.235 26.234zm-113.581-135.129v11.839c0 4.557.329 9.078 1.002 13.492h97.812c-1.322-5.961-4.317-11.477-8.702-15.862-6.063-6.063-14.286-9.469-22.861-9.469zm35.515 72.483c6.547 2.459 14.05 3.81 22.541 3.81 3.866 0 7 3.134 7 7v51.836h34.525v-50.412c0-6.757-5.478-12.234-12.235-12.234zm122.139-180.907c-.099.303-.194.686-.266.998 1.19 2.637.656 5.85-1.559 7.955-2.8 2.661-7.234 2.549-9.896-.252-2.063-2.171-3.766-6.268-1.631-12.911 3.203-11.529 8.575-20.791 14.935-26.444 5.092-4.526 10.87-6.91 16.905-6.91 8.224 0 16.066 4.492 22.232 12.777 7.697 10.344 12.91 26.979 12.91 45.797 0 .046 0 .092-.001.138-.319 16.159-5.441 33.016-12.735 44.034-5.905 8.919-13.462 14.067-20.899 14.351-.5.033-1.002.05-1.507.05-4.745 0-14.748-.239-26.635-11.813-2.767-2.696-2.826-7.131-.131-9.899s7.131-2.827 9.899-.131c7.588 7.389 13.838 7.843 16.867 7.843.21 0 .418-.008.625-.023.1-.007.2-.012.3-.015 3.743-.112 6.843-3.614 9.807-8.091 6.043-9.127 10.133-23.126 10.41-36.523-.013-15.308-3.877-28.942-10.142-37.359-3.152-4.237-6.794-7.136-11-7.136-3.606 0-6.814 2.188-9.66 5.466-3.744 4.313-6.719 10.486-8.724 17.756-.001.003-.002.006-.003.009-.03.111-.063.22-.099.329-.001.002-.001.003-.002.004zm19.203 30.455c.226-.04.343-.313.538-.51.563-.57 1.05-1.306 1.493-2.148 1.529-2.909 2.387-6.881 2.387-11.235 0-4.45-.893-8.501-2.486-11.42-.446-.818-.935-1.53-1.5-2.068-.16-.151-.224-.408-.416-.408-.183 0-.244.247-.397.39-.325.306-.624.675-.908 1.087-.901 1.307-1.608 2.982-2.13 4.878-1.027 3.724-4.884 5.915-8.609 4.888-3.724-1.026-5.915-4.884-4.888-8.608 2.904-10.535 10.057-16.635 16.932-16.635 4.53 0 8.952 2.292 12.348 6.855 3.542 4.76 6.054 12.382 6.054 21.041 0 8.422-2.372 15.865-5.757 20.632-3.196 4.499-7.383 6.916-11.679 7.228-.32.023-.642.035-.966.035-3.084 0-6.061-1.042-8.734-3.118-3.051-2.369-3.605-6.77-1.235-9.822 2.369-3.051 6.771-3.605 9.822-1.235.061.047.07.156.131.173zm76.305 103.008c-42.752 0-77.461 34.709-77.461 77.461 0 42.751 34.709 77.46 77.461 77.46 42.751 0 77.46-34.709 77.46-77.46 0-42.752-34.709-77.461-77.46-77.461zm-26.297 103.758h-22.392c-3.865 0-7-3.134-7-7v-38.595c0-3.866 3.135-7 7-7h22.392v-22.391c0-3.866 3.134-7 7-7h38.594c3.866 0 7 3.134 7 7v22.391h22.391c3.866 0 7 3.134 7 7v38.595c0 3.866-3.134 7-7 7h-22.391v22.391c0 3.866-3.134 7-7 7h-38.594c-3.866 0-7-3.134-7-7zm14-7v22.391h24.594v-22.391c0-3.866 3.134-7 7-7h22.391v-24.595h-22.391c-3.866 0-7-3.134-7-7v-22.391h-24.594v22.391c0 3.866-3.134 7-7 7h-22.392s0 24.595.001 24.595h22.391c3.866 0 7 3.134 7 7z"/></svg>