<svg id="Layer_1" enable-background="new 0 0 512 512" viewBox="0 0 512 512" xmlns="http://www.w3.org/2000/svg" xmlns:xlink="http://www.w3.org/1999/xlink"><linearGradient id="SVGID_1_" gradientUnits="userSpaceOnUse" x1="256" x2="256" y1=".56" y2="511.44"><stop offset="0" stop-color="#17a6d7"/><stop offset=".0617" stop-color="#259adb"/><stop offset=".1856" stop-color="#3b87e2"/><stop offset=".2649" stop-color="#4380e4"/><stop offset="1" stop-color="#9735fd"/></linearGradient><path clip-rule="evenodd" d="m256 511.44c140.724 0 255.5-114.655 255.5-255.379s-114.776-255.501-255.5-255.501-255.5 114.776-255.5 255.5 114.776 255.38 255.5 255.38z" fill="url(#SVGID_1_)" fill-rule="evenodd"/><path d="m275.315 223.636c-5.493 6.646-12.176 10.159-19.325 10.159-7.136 0-13.812-3.513-19.305-10.159-1.696-2.052-1.408-5.09.644-6.785 2.052-1.696 5.09-1.408 6.785.644 2.512 3.039 6.611 6.661 11.876 6.661 5.281 0 9.383-3.622 11.895-6.661 1.696-2.051 4.734-2.339 6.785-.644 2.052 1.696 2.341 4.734.645 6.785zm-73.335-40.612c-8.263 0-14.985 6.723-14.985 14.985 0 2.662 2.158 4.819 4.819 4.819s4.819-2.158 4.819-4.819c0-2.948 2.398-5.346 5.346-5.346s5.346 2.398 5.346 5.346c0 2.662 2.158 4.819 4.819 4.819 2.662 0 4.819-2.158 4.819-4.819.003-8.262-6.72-14.985-14.983-14.985zm108.04 0c-8.263 0-14.985 6.723-14.985 14.985 0 2.662 2.158 4.819 4.819 4.819 2.662 0 4.819-2.158 4.819-4.819 0-2.948 2.398-5.346 5.346-5.346s5.346 2.398 5.346 5.346c0 2.662 2.158 4.819 4.819 4.819s4.819-2.158 4.819-4.819c.002-8.262-6.72-14.985-14.983-14.985zm40.801 130.811 45.424 18.647v41.755c-6.223 22.977-21.091 38.699-45.424 48.012-24.347-9.313-39.222-25.035-45.445-48.012v-41.755zm4.426 44.915v-14.421h-8.873v14.421c0 2.664-2.161 4.818-4.825 4.818h-14.414v8.88h14.414c2.664 0 4.825 2.161 4.825 4.818v14.4h8.873v-14.4c0-2.657 2.161-4.818 4.818-4.818h14.421v-8.88h-14.421c-2.657 0-4.818-2.154-4.818-4.818zm-48.549 41.838c1.803 2.712 3.786 5.28 5.947 7.71-2.375 2.43-4.88 4.695-7.517 6.773l-8.191-5.872c-.007.007-.021.014-.028.021l-60.148-43.166c-3.442-2.464-5.259-6.009-5.259-10.25 0-4.24 1.817-7.785 5.266-10.25l34.514-24.774c-5.004.626-10.112.957-15.288.957-.847 0-1.693-.007-2.533-.028l-22.302 16.011c-5.996 4.282-9.293 10.704-9.293 18.083s3.297 13.801 9.286 18.083l56.892 40.833c.014-.007.021-.014.034-.014l8.639 6.195c-12.177 7.331-26.206 11.316-40.723 11.316-43.772 0-79.38-35.608-79.38-79.38v-60.864c-16.293-14.201-28.752-32.69-35.615-53.684-.001-.002-.001-.003-.002-.005-19.357-1.051-34.782-17.128-34.782-36.742 0-19.439 15.152-35.395 34.265-36.703.001-.003.002-.007.003-.01 13.922-44.682 53.096-78.324 100.743-84.144.05-.006.098-.014.148-.018 4.791-.582 9.672-.884 14.62-.884 54.194 0 100.182 35.829 115.526 85.046.001.003.002.007.003.01 19.112 1.309 34.263 17.265 34.263 36.703 0 19.614-15.425 35.69-34.781 36.742-.001.002-.001.004-.002.005-6.863 20.995-19.329 39.477-35.615 53.678v17.78l-9.644 3.958-27.018 11.089c-1.81.737-2.987 2.499-2.987 4.454v45.624c0 .413.048.826.158 1.225 2.41 9.162 5.989 17.312 10.801 24.492zm70.266-199.828c0 9.455-1.094 18.669-3.158 27.505 12.684-2.283 22.341-13.393 22.341-26.724 0-13.201-9.469-24.228-21.971-26.658v.001c1.825 8.337 2.788 16.996 2.788 25.876zm-238.769 27.505c-2.064-8.836-3.158-18.05-3.158-27.505 0-8.88.964-17.539 2.788-25.875v-.002c-12.502 2.429-21.972 13.456-21.972 26.658 0 13.332 9.657 24.442 22.342 26.724zm118.012 127.071c0-4.605-3.738-8.35-8.336-8.35-4.605 0-8.35 3.745-8.35 8.35s3.745 8.35 8.35 8.35c4.598-.001 8.336-3.745 8.336-8.35zm111.12-154.576c0-57.223-43.393-104.498-98.992-110.652-.007-.001-.014-.001-.021-.002 11.847 9.063 20.007 23.593 20.007 38.967 0 24.743-21.288 40.227-41.869 40.903-.481.016-.96.024-1.434.024-17.67 0-30.152-10.905-31.243-27.498-.464-7.091 2.043-13.945 7.059-19.3 5.402-5.767 13.052-9.075 20.989-9.075 8.293 0 16.115 3.64 21.462 9.988 1.715 2.036 1.455 5.076-.581 6.791-2.036 1.714-5.077 1.454-6.791-.581-3.511-4.168-8.646-6.559-14.09-6.559-5.281 0-10.368 2.196-13.955 6.026-3.174 3.389-4.763 7.678-4.475 12.079.93 14.138 12.35 18.819 22.742 18.471 15.998-.525 32.546-12.365 32.546-31.269 0-19.838-17.732-38.592-36.571-38.782-54.86 6.85-97.438 53.774-97.438 110.469 0 61.394 49.933 111.341 111.32 111.341 61.389-.001 111.335-49.947 111.335-111.341z" fill="#fff"/></svg>