<svg enable-background="new 0 0 64 64" viewBox="0 0 64 64" xmlns="http://www.w3.org/2000/svg"><g id="_x30_1_Doctor"/><g id="_x30_2_Orthopedic"/><g id="_x30_3_Surgeon"/><g id="_x30_4_Surgeon"/><g id="_x30_5_Doctor"/><g id="_x30_6_Surgeon"/><g id="_x30_7_Hazmat"/><g id="_x30_8_Suster"/><g id="_x30_9_Dermatologist"/><g id="_x31_0_Staff_medical"/><g id="_x31_1_Surgeon"><g><path d="m53.803 40.63-15.921-4.423-.424-2.543c.429-.298.845-.619 1.244-.97.003-.002.005-.005.008-.007 2.35-2.068 4.169-5.03 5.222-8.687h.068c2.757 0 5-2.243 5-5v-2c0-1.654-1.346-3-3-3h-1v-7c0-3.86-3.14-7-7-7h-16c-3.86 0-7 3.14-7 7v7h-1c-1.654 0-3 1.346-3 3v2c0 2.757 2.243 5 5 5h.068c1.053 3.657 2.872 6.618 5.222 8.687.003.003.005.005.008.007.399.351.815.672 1.244.97l-.424 2.543-15.921 4.423c-1.293.359-2.197 1.547-2.197 2.89v19.48c0 .552.448 1 1 1h50c.552 0 1-.448 1-1v-19.48c0-1.343-.904-2.531-2.197-2.89zm-10.803-26.63h-4.101c.066-.323.101-.658.101-1s-.035-.677-.101-1h4.101zm-6-1c0 1.654-1.346 3-3 3s-3-1.346-3-3 1.346-3 3-3 3 1.346 3 3zm-7.899 1h-12.101v-2h12.101c-.066.323-.101.658-.101 1s.035.677.101 1zm.925 2c.914 1.207 2.347 2 3.974 2s3.061-.793 3.974-2h4.026l-4.402 5.869-7.356-1.839c-.159-.04-.326-.04-.485 0l-7.356 1.839-4.401-5.869zm-7.026 15.489v-7.708l7-1.75 7 1.75v7.708c-1.996 1.616-4.383 2.511-7 2.511s-5.004-.895-7-2.511zm23-15.489c.551 0 1 .449 1 1v2c0 1.654-1.346 3-3 3h-.833c-.458 0-.857.311-.969.755-.672 2.654-1.773 4.919-3.197 6.71v-6.132l5.499-7.333zm-24-14h16c2.757 0 5 2.243 5 5v3h-5.026c-.913-1.207-2.347-2-3.974-2s-3.061.793-3.974 2h-13.026v-3c0-2.757 2.243-5 5-5zm-4.197 20.755c-.113-.444-.511-.755-.97-.755h-.833c-1.654 0-3-1.346-3-3v-2c0-.551.449-1 1-1h1.5l5.5 7.333v6.132c-1.424-1.791-2.526-4.056-3.197-6.71zm12.197 13.245c2.006 0 3.894-.437 5.61-1.255l.344 2.063-1.278 2.192h-9.351l-1.279-2.192.344-2.063c1.716.818 3.604 1.255 5.61 1.255zm3.509 5-3.509 6.015-3.509-6.015zm20.491 21h-8v-7c0-.552-.448-1-1-1s-1 .448-1 1v7h-28v-7c0-.552-.448-1-1-1s-1 .448-1 1v7h-8v-18.48c0-.447.301-.844.732-.963l15.792-4.387 6.611 11.334c.358.614 1.369.614 1.728 0l6.611-11.334 15.792 4.387c.433.119.734.516.734.963z"/><path d="m44 49h-6c-.552 0-1 .448-1 1s.448 1 1 1h6c.552 0 1-.448 1-1s-.448-1-1-1z"/><circle cx="34" cy="13" r="1"/><path d="m59 14c.552 0 1-.448 1-1v-2c0-3.86-3.14-7-7-7-.552 0-1 .448-1 1v14 15c0 2.206 1.794 4 4 4s4-1.794 4-4v-13c0-1.302-.839-2.402-2-2.816v-4.184zm-1-3v1h-1c-.552 0-1 .448-1 1v5h-2v-11.899c2.279.464 4 2.484 4 4.899zm0 23c0 1.103-.897 2-2 2s-2-.897-2-2v-14h3c.551 0 1 .449 1 1z"/></g></g><g id="_x31_2_Doctor"/><g id="_x31_3_Staff_medical"/><g id="_x31_4_Nurse"/><g id="_x31_5_Hazmat"/><g id="_x31_6_Surgeon"/><g id="_x31_7_Dentist"/><g id="_x31_8_Doctor"/><g id="_x31_9_Dentist"/><g id="_x32_0_Doctor"/><g id="_x32_1_Pharmacy"/><g id="_x32_2_Doctor"/><g id="_x32_3_Nurse"/><g id="_x32_4_Nurse"/><g id="_x32_5_Doctor"/><g id="_x32_6_Therapist"/><g id="_x32_7_Hazmat"/><g id="_x32_8_Doctor"/><g id="_x32_9_Surgeon"/><g id="_x33_0_Neurologist"/><g id="_x33_1_Ambulance_driver"/><g id="_x33_2_Doctor"/><g id="_x33_3_Hazmat"/><g id="_x33_4_Paramedic"/><g id="_x33_5_Doctor"/><g id="_x33_6_Nurse"/><g id="_x33_7_Psychologist"/><g id="_x33_8_Doctor"/><g id="_x33_9_Doctor"/><g id="_x34_0_Paramedic"/><g id="_x34_1_Doctor"/><g id="_x34_2_Doctor"/><g id="_x34_3_Gynecologist"/><g id="_x34_4_Audiologist"/><g id="_x34_5_Doctor"/><g id="_x34_6_Doctor"/><g id="_x34_7_Ophthalmologist"/><g id="_x34_8_Urology"/><g id="_x34_9_Paramedic"/><g id="_x35_0_Doctor"/></svg>